# xmcd
#
# Track frame offsets: 
#        150
#        17301
#        26907
#        39620
#        51009
#        60622
#        75856
#        89861
#        102669
#        117856
#        130425
#        145016
#        156079
#        165967
#        179291
#        193673
#        205612
#        215863
#        233884
#        243530
#        255495
#        265854
#        283592
#        298952
#        314957
#
# Disc length: 4409 seconds
#
# Revision: 0
# Processed by: cddbd v1.5.2PL0 Copyright (c) Steve Scherf et al.
# Submitted via: ExactAudioCopy v1.0b3
#
DISCID=75113719
DTITLE=Eri esitajad - Jõulukellade helin
DYEAR=2009
DGENRE=Country
TTITLE0=Olev Vestman - Valged jõulud
TTITLE1=Kristi Jörberg - Kui jõuluhommik koidab
TTITLE2=Parvepoisid - Läbi lume sahiseva
TTITLE3=Toomas Anni - Lumesadu jõuluõhtul
TTITLE4=Toivo Nikopensius - Täht
TTITLE5=Parvepoisid - Jõulukellad
TTITLE6=Heldur Jõgioja - Talvine igatsus
TTITLE7=Olev Vestman - Tule õeke!
TTITLE8=Sirje ja Rein Kurg - Jõuluõhtu
TTITLE9=Parvepoisid - Meil metsas sirgus kuuseke
TTITLE10=Kristi Jörberg - On Jeesuslaps sündinud
TTITLE11=Toivo Nikopensius - Püha jõuluõhtu
TTITLE12=Toomas Anni - Talvepolka
TTITLE13=Olev Vestman - Iial ei helise kellad
TTITLE14=Parvepoisid - Talve võlumaa
TTITLE15=Toivo Nikopensius - Jõulumees
TTITLE16=Olev Vestman - Talvemõtted
TTITLE17=Toomas Anni - Uusaastat oodates
TTITLE18=Heldur Jõgioja - Lootus
TTITLE19=Kristi Jörberg - Ma tulen taevast ülevalt
TTITLE20=Olev Vestman - Kojusõit
TTITLE21=Parvepoisid - Talveöö
TTITLE22=Heldur Jõgioja - Pühadetunne
TTITLE23=Sirje ja Rein Kurg - Eestimaa palve
TTITLE24=Olev Vestman - Uusaastaöö
EXTD=
EXTT0=
EXTT1=
EXTT2=
EXTT3=
EXTT4=
EXTT5=
EXTT6=
EXTT7=
EXTT8=
EXTT9=
EXTT10=
EXTT11=
EXTT12=
EXTT13=
EXTT14=
EXTT15=
EXTT16=
EXTT17=
EXTT18=
EXTT19=
EXTT20=
EXTT21=
EXTT22=
EXTT23=
EXTT24=
PLAYORDER=
